<svg width="58" height="65" viewBox="0 0 58 65" fill="none" xmlns="http://www.w3.org/2000/svg">
<path d="M32.1759 25.3387C32.7075 23.9999 34.9596 23.9999 35.4912 25.3387L38.6083 33.1974C39.2945 34.9249 40.4505 36.4945 41.9847 37.7818C43.519 39.0691 45.3894 40.0387 47.4475 40.6138L56.8039 43.2306C58.3987 43.6769 58.3987 45.5675 56.8039 46.0138L47.4427 48.6306C45.3849 49.2066 43.5152 50.1771 41.9817 51.4651C40.4483 52.7531 39.2933 54.3232 38.6083 56.0511L35.4912 63.9057C35.3766 64.1988 35.1546 64.4541 34.8569 64.6351C34.5592 64.8161 34.2011 64.9136 33.8335 64.9136C33.466 64.9136 33.1078 64.8161 32.8101 64.6351C32.5124 64.4541 32.2905 64.1988 32.1759 63.9057L29.0587 56.047C28.373 54.3199 27.2178 52.7506 25.6844 51.4633C24.151 50.176 22.2816 49.2062 20.2243 48.6306L10.8631 46.0138C10.5139 45.9176 10.2098 45.7312 9.9942 45.4813C9.7786 45.2314 9.66252 44.9307 9.66252 44.6222C9.66252 44.3136 9.7786 44.013 9.9942 43.7631C10.2098 43.5132 10.5139 43.3268 10.8631 43.2306L20.2243 40.6138C22.2816 40.0382 24.151 39.0683 25.6844 37.7811C27.2178 36.4938 28.373 34.9244 29.0587 33.1974L32.1759 25.3387V25.3387ZM13.5067 4.65149C13.576 4.4758 13.7095 4.3229 13.8882 4.21454C14.0669 4.10617 14.2818 4.04785 14.5022 4.04785C14.7227 4.04785 14.9376 4.10617 15.1163 4.21454C15.295 4.3229 15.4285 4.4758 15.4978 4.65149L17.3681 9.36586C18.2042 11.4674 20.1663 13.1146 22.6697 13.8165L28.2854 15.3866C28.4947 15.4448 28.6768 15.5569 28.8059 15.7069C28.935 15.8569 29.0045 16.0373 29.0045 16.2224C29.0045 16.4075 28.935 16.5878 28.8059 16.7379C28.6768 16.8879 28.4947 17 28.2854 17.0581L22.6697 18.6283C21.435 18.9736 20.3132 19.5556 19.3929 20.3281C18.4727 21.1006 17.7795 22.0424 17.3681 23.0789L15.4978 27.7933C15.4285 27.969 15.295 28.1219 15.1163 28.2302C14.9376 28.3386 14.7227 28.3969 14.5022 28.3969C14.2818 28.3969 14.0669 28.3386 13.8882 28.2302C13.7095 28.1219 13.576 27.969 13.5067 27.7933L11.6364 23.0789C11.225 22.0424 10.5318 21.1006 9.61156 20.3281C8.69135 19.5556 7.56945 18.9736 6.33479 18.6283L0.71906 17.0581C0.509772 17 0.327647 16.8879 0.198563 16.7379C0.0694782 16.5878 0 16.4075 0 16.2224C0 16.0373 0.0694782 15.8569 0.198563 15.7069C0.327647 15.5569 0.509772 15.4448 0.71906 15.3866L6.33479 13.8165C7.56945 13.4712 8.69135 12.8892 9.61156 12.1167C10.5318 11.3442 11.225 10.4024 11.6364 9.36586L13.5067 4.65149V4.65149ZM47.6699 0.395579C47.7176 0.280058 47.807 0.179887 47.9256 0.108991C48.0443 0.0380959 48.1863 0 48.3319 0C48.4776 0 48.6196 0.0380959 48.7383 0.108991C48.8569 0.179887 48.9463 0.280058 48.994 0.395579L50.2409 3.53579C50.7967 4.93955 52.1064 6.03903 53.7785 6.50559L57.5191 7.55233C57.6567 7.59238 57.7761 7.66743 57.8605 7.76704C57.945 7.86666 57.9903 7.98589 57.9903 8.10815C57.9903 8.23042 57.945 8.34965 57.8605 8.44926C57.7761 8.54888 57.6567 8.62393 57.5191 8.66398L53.7785 9.71071C52.9545 9.94085 52.2057 10.3291 51.5916 10.8446C50.9775 11.3601 50.515 11.9887 50.2409 12.6805L48.994 15.8207C48.9463 15.9363 48.8569 16.0364 48.7383 16.1073C48.6196 16.1782 48.4776 16.2163 48.3319 16.2163C48.1863 16.2163 48.0443 16.1782 47.9256 16.1073C47.807 16.0364 47.7176 15.9363 47.6699 15.8207L46.423 12.6805C46.1489 11.9887 45.6864 11.3601 45.0723 10.8446C44.4582 10.3291 43.7094 9.94085 42.8854 9.71071L39.1496 8.66398C39.012 8.62393 38.8927 8.54888 38.8082 8.44926C38.7238 8.34965 38.6784 8.23042 38.6784 8.10815C38.6784 7.98589 38.7238 7.86666 38.8082 7.76704C38.8927 7.66743 39.012 7.59238 39.1496 7.55233L42.8902 6.50559C44.5624 6.03903 45.872 4.93955 46.4278 3.53579L47.6699 0.399636V0.395579Z" fill="white"/>
</svg>
