<svg width="144" height="22" viewBox="0 0 144 22" fill="none" xmlns="http://www.w3.org/2000/svg">
<path d="M15.0938 9C15.0938 10.7448 14.763 12.2292 14.1016 13.4531C13.4453 14.6771 12.5495 15.612 11.4141 16.2578C10.2839 16.8984 9.01302 17.2187 7.60156 17.2187C6.17969 17.2187 4.90365 16.8958 3.77344 16.25C2.64323 15.6042 1.75 14.6693 1.09375 13.4453C0.4375 12.2214 0.109375 10.7396 0.109375 9C0.109375 7.25521 0.4375 5.77083 1.09375 4.54688C1.75 3.32292 2.64323 2.39062 3.77344 1.75C4.90365 1.10417 6.17969 0.781249 7.60156 0.781249C9.01302 0.781249 10.2839 1.10417 11.4141 1.75C12.5495 2.39062 13.4453 3.32292 14.1016 4.54688C14.763 5.77083 15.0938 7.25521 15.0938 9ZM11.6641 9C11.6641 7.86979 11.4948 6.91667 11.1562 6.14062C10.8229 5.36458 10.3516 4.77604 9.74219 4.375C9.13281 3.97396 8.41927 3.77344 7.60156 3.77344C6.78385 3.77344 6.07031 3.97396 5.46094 4.375C4.85156 4.77604 4.3776 5.36458 4.03906 6.14062C3.70573 6.91667 3.53906 7.86979 3.53906 9C3.53906 10.1302 3.70573 11.0833 4.03906 11.8594C4.3776 12.6354 4.85156 13.224 5.46094 13.625C6.07031 14.026 6.78385 14.2266 7.60156 14.2266C8.41927 14.2266 9.13281 14.026 9.74219 13.625C10.3516 13.224 10.8229 12.6354 11.1562 11.8594C11.4948 11.0833 11.6641 10.1302 11.6641 9ZM20.8652 10.0625V17H17.5371V5H20.709V7.11719H20.8496C21.1152 6.41927 21.5605 5.86719 22.1855 5.46094C22.8105 5.04948 23.5684 4.84375 24.459 4.84375C25.2923 4.84375 26.0189 5.02604 26.6387 5.39062C27.2585 5.75521 27.7402 6.27604 28.084 6.95312C28.4277 7.625 28.5996 8.42708 28.5996 9.35937V17H25.2715V9.95312C25.2767 9.21875 25.0892 8.64583 24.709 8.23438C24.3288 7.81771 23.8053 7.60937 23.1387 7.60937C22.6908 7.60937 22.2949 7.70573 21.9512 7.89844C21.6126 8.09115 21.347 8.3724 21.1543 8.74219C20.9668 9.10677 20.8704 9.54688 20.8652 10.0625ZM36.6914 17.2344C35.457 17.2344 34.3945 16.9844 33.5039 16.4844C32.6185 15.9792 31.9362 15.2656 31.457 14.3437C30.9779 13.4167 30.7383 12.3203 30.7383 11.0547C30.7383 9.82031 30.9779 8.73698 31.457 7.80469C31.9362 6.8724 32.6107 6.14583 33.4805 5.625C34.3555 5.10417 35.3815 4.84375 36.5586 4.84375C37.3503 4.84375 38.0872 4.97135 38.7695 5.22656C39.457 5.47656 40.056 5.85417 40.5664 6.35937C41.082 6.86458 41.4831 7.5 41.7695 8.26562C42.056 9.02604 42.1992 9.91667 42.1992 10.9375V11.8516H32.0664V9.78906H39.0664C39.0664 9.3099 38.9622 8.88542 38.7539 8.51563C38.5456 8.14583 38.2565 7.85677 37.8867 7.64844C37.5221 7.4349 37.0977 7.32812 36.6133 7.32812C36.1081 7.32812 35.6602 7.44531 35.2695 7.67969C34.8841 7.90885 34.582 8.21875 34.3633 8.60937C34.1445 8.99479 34.0326 9.42448 34.0273 9.89844V11.8594C34.0273 12.4531 34.1367 12.9661 34.3555 13.3984C34.5794 13.8307 34.8945 14.1641 35.3008 14.3984C35.707 14.6328 36.1888 14.75 36.7461 14.75C37.1159 14.75 37.4544 14.6979 37.7617 14.5938C38.069 14.4896 38.332 14.3333 38.5508 14.125C38.7695 13.9167 38.9362 13.6615 39.0508 13.3594L42.1289 13.5625C41.9727 14.3021 41.6523 14.9479 41.168 15.5C40.6888 16.0469 40.069 16.474 39.3086 16.7813C38.5534 17.0833 37.681 17.2344 36.6914 17.2344ZM54.3555 8.42187L51.3086 8.60937C51.2565 8.34896 51.1445 8.11458 50.9727 7.90625C50.8008 7.69271 50.5742 7.52344 50.293 7.39844C50.0169 7.26823 49.6862 7.20312 49.3008 7.20312C48.7852 7.20312 48.3503 7.3125 47.9961 7.53125C47.6419 7.74479 47.4648 8.03125 47.4648 8.39062C47.4648 8.67708 47.5794 8.91927 47.8086 9.11719C48.0378 9.3151 48.431 9.47396 48.9883 9.59375L51.1602 10.0312C52.3268 10.2708 53.1966 10.6562 53.7695 11.1875C54.3424 11.7187 54.6289 12.4167 54.6289 13.2812C54.6289 14.0677 54.3971 14.7578 53.9336 15.3516C53.4753 15.9453 52.8451 16.4089 52.043 16.7422C51.2461 17.0703 50.3268 17.2344 49.2852 17.2344C47.6966 17.2344 46.431 16.9036 45.4883 16.2422C44.5508 15.5755 44.0013 14.6693 43.8398 13.5234L47.1133 13.3516C47.2122 13.8359 47.4518 14.2057 47.832 14.4609C48.2122 14.7109 48.6992 14.8359 49.293 14.8359C49.8763 14.8359 50.3451 14.724 50.6992 14.5C51.0586 14.2708 51.2409 13.9766 51.2461 13.6172C51.2409 13.3151 51.1133 13.0677 50.8633 12.875C50.6133 12.6771 50.2279 12.526 49.707 12.4219L47.6289 12.0078C46.457 11.7734 45.5846 11.3672 45.0117 10.7891C44.444 10.2109 44.1602 9.47396 44.1602 8.57812C44.1602 7.80729 44.3685 7.14323 44.7852 6.58594C45.207 6.02865 45.7982 5.59896 46.5586 5.29687C47.3242 4.99479 48.2201 4.84375 49.2461 4.84375C50.7617 4.84375 51.9544 5.16406 52.8242 5.80469C53.6992 6.44531 54.2096 7.31771 54.3555 8.42187ZM63.1074 5V7.5H55.8809V5H63.1074ZM57.5215 2.125H60.8496V13.3125C60.8496 13.6198 60.8965 13.8594 60.9902 14.0312C61.084 14.1979 61.2142 14.3151 61.3809 14.3828C61.5527 14.4505 61.7507 14.4844 61.9746 14.4844C62.1309 14.4844 62.2871 14.4714 62.4434 14.4453C62.5996 14.4141 62.7194 14.3906 62.8027 14.375L63.3262 16.8516C63.1595 16.9036 62.9251 16.9635 62.623 17.0313C62.321 17.1042 61.9538 17.1484 61.5215 17.1641C60.7194 17.1953 60.0163 17.0885 59.4121 16.8437C58.8132 16.599 58.347 16.2187 58.0137 15.7031C57.6803 15.1875 57.5163 14.5365 57.5215 13.75V2.125ZM81.8184 17V5H85.0449V7.09375H85.1699C85.3887 6.34896 85.7559 5.78646 86.2715 5.40625C86.7871 5.02083 87.3809 4.82812 88.0527 4.82812C88.2194 4.82812 88.3991 4.83854 88.5918 4.85937C88.7845 4.88021 88.9538 4.90885 89.0996 4.94531V7.89844C88.9434 7.85156 88.7272 7.8099 88.4512 7.77344C88.1751 7.73698 87.9225 7.71875 87.6934 7.71875C87.2038 7.71875 86.7663 7.82552 86.3809 8.03906C86.0007 8.2474 85.6986 8.53906 85.4746 8.91406C85.2559 9.28906 85.1465 9.72135 85.1465 10.2109V17H81.8184ZM93.2402 21.5C92.8184 21.5 92.4225 21.4661 92.0527 21.3984C91.6882 21.3359 91.3861 21.2552 91.1465 21.1562L91.8965 18.6719C92.2871 18.7917 92.6387 18.8568 92.9512 18.8672C93.2689 18.8776 93.5423 18.8047 93.7715 18.6484C94.0059 18.4922 94.196 18.2266 94.3418 17.8516L94.5371 17.3438L90.2324 5H93.7324L96.2168 13.8125H96.3418L98.8496 5H102.373L97.709 18.2969C97.485 18.9427 97.1803 19.5052 96.7949 19.9844C96.4147 20.4688 95.9329 20.8411 95.3496 21.1016C94.7663 21.3672 94.0632 21.5 93.2402 21.5ZM104.076 21.5V5H107.357V7.01562H107.506C107.652 6.69271 107.863 6.36458 108.139 6.03125C108.42 5.69271 108.785 5.41146 109.232 5.1875C109.686 4.95833 110.248 4.84375 110.92 4.84375C111.795 4.84375 112.602 5.07292 113.342 5.53125C114.081 5.98437 114.673 6.66927 115.115 7.58594C115.558 8.4974 115.779 9.64062 115.779 11.0156C115.779 12.3542 115.563 13.4844 115.131 14.4062C114.704 15.3229 114.12 16.0182 113.381 16.4922C112.646 16.9609 111.824 17.1953 110.912 17.1953C110.266 17.1953 109.717 17.0885 109.264 16.875C108.816 16.6615 108.449 16.3932 108.162 16.0703C107.876 15.7422 107.657 15.4115 107.506 15.0781H107.404V21.5H104.076ZM107.334 11C107.334 11.7135 107.433 12.3359 107.631 12.8672C107.829 13.3984 108.115 13.8125 108.49 14.1094C108.865 14.401 109.321 14.5469 109.857 14.5469C110.399 14.5469 110.857 14.3984 111.232 14.1016C111.607 13.7995 111.891 13.3828 112.084 12.8516C112.282 12.3151 112.381 11.6979 112.381 11C112.381 10.3073 112.285 9.69792 112.092 9.17187C111.899 8.64583 111.615 8.23437 111.24 7.9375C110.865 7.64062 110.404 7.49219 109.857 7.49219C109.316 7.49219 108.857 7.63542 108.482 7.92187C108.113 8.20833 107.829 8.61458 107.631 9.14062C107.433 9.66667 107.334 10.2865 107.334 11ZM124.381 5V7.5H117.154V5H124.381ZM118.795 2.125H122.123V13.3125C122.123 13.6198 122.17 13.8594 122.264 14.0312C122.357 14.1979 122.488 14.3151 122.654 14.3828C122.826 14.4505 123.024 14.4844 123.248 14.4844C123.404 14.4844 123.561 14.4714 123.717 14.4453C123.873 14.4141 123.993 14.3906 124.076 14.375L124.6 16.8516C124.433 16.9036 124.199 16.9635 123.896 17.0313C123.594 17.1042 123.227 17.1484 122.795 17.1641C121.993 17.1953 121.29 17.0885 120.686 16.8437C120.087 16.599 119.62 16.2187 119.287 15.7031C118.954 15.1875 118.79 14.5365 118.795 13.75V2.125ZM131.842 17.2344C130.628 17.2344 129.579 16.9766 128.693 16.4609C127.813 15.9401 127.133 15.2161 126.654 14.2891C126.175 13.3568 125.936 12.276 125.936 11.0469C125.936 9.80729 126.175 8.72396 126.654 7.79687C127.133 6.86458 127.813 6.14062 128.693 5.625C129.579 5.10417 130.628 4.84375 131.842 4.84375C133.055 4.84375 134.102 5.10417 134.982 5.625C135.868 6.14062 136.55 6.86458 137.029 7.79687C137.508 8.72396 137.748 9.80729 137.748 11.0469C137.748 12.276 137.508 13.3568 137.029 14.2891C136.55 15.2161 135.868 15.9401 134.982 16.4609C134.102 16.9766 133.055 17.2344 131.842 17.2344ZM131.857 14.6562C132.41 14.6562 132.87 14.5 133.24 14.1875C133.61 13.8698 133.889 13.4375 134.076 12.8906C134.269 12.3437 134.365 11.7214 134.365 11.0234C134.365 10.3255 134.269 9.70313 134.076 9.15625C133.889 8.60937 133.61 8.17708 133.24 7.85937C132.87 7.54167 132.41 7.38281 131.857 7.38281C131.3 7.38281 130.831 7.54167 130.451 7.85937C130.076 8.17708 129.792 8.60937 129.6 9.15625C129.412 9.70313 129.318 10.3255 129.318 11.0234C129.318 11.7214 129.412 12.3437 129.6 12.8906C129.792 13.4375 130.076 13.8698 130.451 14.1875C130.831 14.5 131.3 14.6562 131.857 14.6562ZM141.857 17.2031C141.342 17.2031 140.899 17.0208 140.529 16.6562C140.165 16.2865 139.982 15.8437 139.982 15.3281C139.982 14.8177 140.165 14.3802 140.529 14.0156C140.899 13.651 141.342 13.4687 141.857 13.4687C142.357 13.4687 142.795 13.651 143.17 14.0156C143.545 14.3802 143.732 14.8177 143.732 15.3281C143.732 15.6719 143.644 15.987 143.467 16.2734C143.295 16.5547 143.068 16.7812 142.787 16.9531C142.506 17.1198 142.196 17.2031 141.857 17.2031Z" fill="#FAF9FD"/>
<path d="M79.4551 6.60156H76.0332C75.9707 6.15885 75.8431 5.76562 75.6504 5.42187C75.4577 5.07292 75.2103 4.77604 74.9082 4.53125C74.6061 4.28646 74.2572 4.09896 73.8613 3.96875C73.4707 3.83854 73.0462 3.77344 72.5879 3.77344C71.7598 3.77344 71.0384 3.97917 70.4238 4.39062C69.8092 4.79687 69.3327 5.39062 68.9941 6.17188C68.6556 6.94792 68.4863 7.89062 68.4863 9C68.4863 10.1406 68.6556 11.099 68.9941 11.875C69.3379 12.651 69.8171 13.237 70.4316 13.6328C71.0462 14.0286 71.7572 14.2266 72.5645 14.2266C73.0176 14.2266 73.4368 14.1667 73.8223 14.0469C74.2129 13.9271 74.5592 13.7526 74.8613 13.5234C75.1634 13.2891 75.4134 13.0052 75.6113 12.6719C75.8145 12.3385 75.9551 11.9583 76.0332 11.5312L79.4551 11.5469C79.3665 12.2812 79.1452 12.9896 78.791 13.6719C78.4421 14.349 77.9707 14.9557 77.377 15.4922C76.7884 16.0234 76.0853 16.4453 75.2676 16.7578C74.4551 17.0651 73.5358 17.2187 72.5098 17.2187C71.0827 17.2187 69.8066 16.8958 68.6816 16.25C67.5618 15.6042 66.6764 14.6693 66.0254 13.4453C65.3796 12.2214 65.0566 10.7396 65.0566 9C65.0566 7.25521 65.3848 5.77083 66.041 4.54688C66.6973 3.32292 67.5879 2.39062 68.7129 1.75C69.8379 1.10417 71.1035 0.781249 72.5098 0.781249C73.4368 0.781249 74.2962 0.911458 75.0879 1.17187C75.8848 1.43229 76.5905 1.8125 77.2051 2.3125C77.8197 2.80729 78.3197 3.41406 78.7051 4.13281C79.0957 4.85156 79.3457 5.67448 79.4551 6.60156Z" fill="#FF9900"/>
</svg>
